<svg xmlns="http://www.w3.org/2000/svg" viewBox="0 10.079999923706055 199.8000030517578 41.19000244140625" data-asc="1.0087890625" width="199.8000030517578" height="41.19000244140625"><defs/><g><g fill="#0433ff"><g transform="translate(0, 0)"><path d="M23.88 25.46L13.60 25.46L13.60 21.88Q13.60 18.48 13.31 17.63Q13.01 16.77 11.91 16.77Q10.96 16.77 10.62 17.50Q10.28 18.24 10.28 21.26L10.28 40.23Q10.28 42.90 10.62 43.74Q10.96 44.58 11.99 44.58Q13.11 44.58 13.51 43.63Q13.92 42.68 13.92 39.92L13.92 35.23L11.84 35.23L11.84 29.22L23.88 29.22L23.88 50.44L17.41 50.44L16.46 47.61Q15.41 49.44 13.81 50.35Q12.21 51.27 10.03 51.27Q7.45 51.27 5.19 50.01Q2.93 48.75 1.76 46.90Q0.59 45.04 0.29 43.01Q0 40.97 0 36.89L0 25.15Q0 19.48 0.61 16.92Q1.22 14.36 4.11 12.22Q7.01 10.08 11.60 10.08Q16.11 10.08 19.09 11.94Q22.07 13.79 22.97 16.35Q23.88 18.90 23.88 23.75L23.88 25.46ZM49.88 29.42L49.88 37.35Q49.88 41.72 49.44 43.76Q49.00 45.80 47.56 47.57Q46.12 49.34 43.86 50.18Q41.60 51.03 38.67 51.03Q35.40 51.03 33.13 50.31Q30.86 49.58 29.60 48.13Q28.34 46.68 27.81 44.62Q27.27 42.55 27.27 38.43L27.27 30.13Q27.27 25.61 28.25 23.07Q29.22 20.53 31.76 18.99Q34.30 17.46 38.26 17.46Q41.58 17.46 43.96 18.44Q46.34 19.43 47.63 21.02Q48.93 22.61 49.40 24.29Q49.88 25.98 49.88 29.42M40.01 26.98Q40.01 24.49 39.75 23.84Q39.48 23.19 38.60 23.19Q37.72 23.19 37.43 23.84Q37.13 24.49 37.13 26.98L37.13 41.60Q37.13 43.90 37.43 44.59Q37.72 45.29 38.57 45.29Q39.45 45.29 39.73 44.65Q40.01 44.02 40.01 41.92L40.01 26.98ZM62.23 10.91L69.92 10.91Q77.37 10.91 79.99 11.60Q82.62 12.28 83.98 13.84Q85.35 15.41 85.69 17.32Q86.04 19.24 86.04 24.85L86.04 38.70Q86.04 44.02 85.53 45.81Q85.03 47.61 83.79 48.62Q82.54 49.63 80.71 50.04Q78.88 50.44 75.20 50.44L62.23 50.44L62.23 10.91M72.51 17.68L72.51 43.68Q74.73 43.68 75.24 42.79Q75.76 41.89 75.76 37.94L75.76 22.58Q75.76 19.90 75.59 19.14Q75.42 18.38 74.80 18.03Q74.19 17.68 72.51 17.68ZM111.91 34.81L99.15 34.81L99.15 41.82Q99.15 44.02 99.46 44.65Q99.78 45.29 100.68 45.29Q101.81 45.29 102.19 44.45Q102.56 43.60 102.56 41.19L102.56 36.91L111.91 36.91L111.91 39.31Q111.91 42.31 111.54 43.92Q111.16 45.53 109.77 47.36Q108.37 49.19 106.24 50.11Q104.10 51.03 100.88 51.03Q97.75 51.03 95.36 50.12Q92.97 49.22 91.64 47.64Q90.31 46.07 89.79 44.18Q89.28 42.29 89.28 38.67L89.28 29.22Q89.28 24.98 90.43 22.52Q91.58 20.07 94.19 18.76Q96.80 17.46 100.20 17.46Q104.35 17.46 107.04 19.03Q109.74 20.61 110.83 23.21Q111.91 25.81 111.91 30.52L111.91 34.81M102.03 29.54L102.03 27.17Q102.03 24.66 101.76 23.93Q101.49 23.19 100.66 23.19Q99.63 23.19 99.39 23.82Q99.15 24.44 99.15 27.17L99.15 29.54L102.03 29.54ZM135.52 18.04L130.91 50.44L118.04 50.44L113.09 18.04L121.90 18.04L124.66 41.67Q124.98 39.09 125.73 28.98Q126.17 23.34 126.71 18.04L135.52 18.04ZM170.58 10.91L164.70 28.76L171.14 50.44L160.52 50.44L156.37 33.50L156.37 50.44L146.09 50.44L146.09 10.91L156.37 10.91L156.37 26.27L160.94 10.91L170.58 10.91ZM182.79 10.91L182.79 16.06L172.63 16.06L172.63 10.91L182.79 10.91M182.79 18.04L182.79 50.44L172.63 50.44L172.63 18.04L182.79 18.04ZM196.73 13.72L196.73 18.82L199.39 18.82L199.39 23.95L196.73 23.95L196.73 41.28Q196.73 44.48 197.06 44.85Q197.39 45.21 199.80 45.21L199.80 50.44L195.83 50.44Q192.46 50.44 191.02 50.16Q189.58 49.88 188.48 48.86Q187.38 47.85 187.11 46.55Q186.84 45.24 186.84 40.41L186.84 23.95L184.72 23.95L184.72 18.82L186.84 18.82L186.84 13.72L196.73 13.72Z"/></g></g></g></svg>